<svg width="97" height="26" viewBox="0 0 97 26" fill="none" xmlns="http://www.w3.org/2000/svg">
<path d="M8.46949 22.3009C10.7263 22.3009 12.2609 21.4885 13.1937 20.8566V17.9377C11.9901 18.8104 10.6661 19.4724 8.74031 19.4724C5.43032 19.4724 3.8656 16.7943 3.8656 11.5585C3.8656 6.17226 5.37014 3.61455 8.92085 3.61455C10.5758 3.61455 12.1105 4.33673 13.1937 5.02881V2.11001C12.2308 1.41792 10.6661 0.786017 8.74031 0.786017C3.17352 0.786017 0.164441 4.87836 0.164441 11.5585C0.164441 18.4192 3.29388 22.3009 8.46949 22.3009ZM25.3871 9.69288V6.86435H13.3809V9.69288H17.5936V22H21.1744V9.69288H25.3871ZM37.9102 11.6789C37.9102 8.0078 36.0446 6.62362 32.2532 6.62362C29.876 6.62362 28.0104 7.37589 26.9271 8.0078V10.9868C27.89 10.2646 29.9964 9.48225 31.8319 9.48225C33.5471 9.48225 34.3294 10.0841 34.3294 11.709V12.5515H33.7577C28.2812 12.5515 25.8438 14.3569 25.8438 17.4262C25.8438 20.4955 27.7095 22.2106 30.4778 22.2106C32.5842 22.2106 33.4869 21.5185 34.179 20.7964H34.3294C34.3595 21.1875 34.4799 21.6991 34.6003 22H38.0908C37.9704 20.7663 37.9102 19.5326 37.9102 18.2988V11.6789ZM34.3294 18.3891C33.8781 19.0511 33.0355 19.5927 31.7717 19.5927C30.2672 19.5927 29.5149 18.69 29.5149 17.3359C29.5149 15.5606 30.7486 14.9287 33.8179 14.9287H34.3294V18.3891ZM49.1545 6.86435V12.8524H44.3701V6.86435H40.7893V22H44.3701V15.6809H49.1545V22H52.7353V6.86435H49.1545ZM55.7465 22H65.8269V25.4604H69.1369V19.1715H67.5421V6.86435H63.9613V19.1715H59.3273V6.86435H55.7465V22ZM71.027 6.86435V22H74.1263L79.663 12.6418V22H83.1536V6.86435H80.0542L74.5175 16.2226V6.86435H71.027ZM85.1073 22H88.7784L91.6671 17.0651H93.3823V22H96.9631V6.86435H91.4866C87.9961 6.86435 85.4985 8.6397 85.4985 11.8895C85.4985 14.1764 86.5818 15.6208 88.5076 16.2828L85.1073 22ZM91.7574 9.69288H93.3823V14.4472H91.6671C90.0422 14.4472 89.1395 13.7551 89.1395 12.0099C89.1395 10.3549 90.1927 9.69288 91.7574 9.69288Z" fill="#161616"/>
</svg>
